<?xml version="1.0" encoding="utf-8"?>
<!-- Generator: Adobe Illustrator 17.0.0, SVG Export Plug-In . SVG Version: 6.00 Build 0)  -->
<!DOCTYPE svg PUBLIC "-//W3C//DTD SVG 1.1//EN" "http://www.w3.org/Graphics/SVG/1.1/DTD/svg11.dtd">
<svg version="1.1" id="ZOOM_1_" xmlns="http://www.w3.org/2000/svg" xmlns:xlink="http://www.w3.org/1999/xlink" x="0px" y="0px"
	 width="33px" height="32px" viewBox="0 0 33 32" style="enable-background:new 0 0 33 32;" xml:space="preserve">
<style type="text/css">
	.st0{fill-rule:evenodd;clip-rule:evenodd;fill:#C6C6C6;}
</style>
<g id="ZOOM">
	<g>
		<path class="st0" d="M20.125,13H7.875C7.392,13,7,13.448,7,14c0,0.552,0.392,1,0.875,1h12.25C20.608,15,21,14.552,21,14
			C21,13.448,20.608,13,20.125,13z M20.125,9H7.875C7.392,9,7,9.448,7,10c0,0.552,0.392,1,0.875,1h12.25C20.608,11,21,10.552,21,10
			C21,9.448,20.608,9,20.125,9z M30.639,28.92l-4.691-4.638c-0.316-0.314-0.758-0.401-1.162-0.301l-1.209-1.212
			C25.696,20.456,27,17.384,27,14c0-7.18-5.82-13-13-13C6.82,1,1,6.82,1,14c0,7.18,5.82,13,13,13c3.392,0,6.471-1.31,8.786-3.438
			l1.15,1.152c-0.165,0.435-0.077,0.943,0.275,1.293l4.691,4.639c0.24,0.238,0.554,0.357,0.868,0.357
			c0.314,0,0.628-0.119,0.868-0.357C31.118,30.169,31.118,29.397,30.639,28.92z M14,25C7.925,25,3,20.075,3,14C3,7.925,7.925,3,14,3
			c6.075,0,11,4.925,11,11C25,20.075,20.075,25,14,25z M14.125,17h-6.25C7.392,17,7,17.448,7,18c0,0.552,0.392,1,0.875,1h6.25
			C14.608,19,15,18.552,15,18C15,17.448,14.608,17,14.125,17z"/>
	</g>
</g>
</svg>
